# xmcd
#
# Track frame offsets:
#	183
#	11873
#	23830
#	38303
#	52953
#	65113
#	74153
#	85653
#	96153
#	108260
#	118145
#	128533
#	139158
#	148930
#	158440
#	168110
#	177740
#	186818
#	197753
#	209525
#	219060
#	232308
#	242515
#	252190
#
# Disc length: 3514 seconds
#
# Revision: 5
# Processed by: cddbd v1.5.2PL0 Copyright (c) Steve Scherf et al.
# Submitted via: audiograbber 1.83.01
#
DISCID=580db818
DTITLE=Various Artist - The Trouble With Boys - Here ComeThe Girls - Volume 7
DYEAR=1995
DGENRE=Oldies
TTITLE0=Cinderellas - Baby Baby (I Still Love You)
TTITLE1=Cinderellas - Please Don't Wake Me
TTITLE2=Toys - Baby Toys
TTITLE3=Toys - See How They Run
TTITLE4=Toys - May My Heart Be Cast Into Stone
TTITLE5=Essex - Curfew Lover
TTITLE6=Essex - What Did I Do?
TTITLE7=Essex - Are You Going My Way?
TTITLE8=Bobbettes - Moon Of Love  (Take 19)
TTITLE9=Del Vetts  - Will You Love Me In Heaven 
TTITLE10=Del Vetts - I Want A Boy For Christmas  (Take 4)
TTITLE11=Uniques - Send Him To Me
TTITLE12=Shelley Fabares - Breaking Up Is Hard To Do
TTITLE13=Marie Applebee - Toom Toom (Is A Little Boy)
TTITLE14=Marie Applebee - Down By The Sea (End Of Summer)
TTITLE15=Debbie Dovale - Hey Lover
TTITLE16=Debbie Dovale - I'm My Own Doctor
TTITLE17=Jewels - Opportunity
TTITLE18=Elaine - I Never Wouder Where My Baby Goes  (Take 2)
TTITLE19=Elaine - There's Danger Ahead
TTITLE20=Elaine - It Should'A Been Me (Instead Of Company)
TTITLE21=Little Eva - Get Him (Alternate Take)
TTITLE22=Little Eva - Wake Up John  (Alternate Take)
TTITLE23=Little Eva - The Trouble With Boys
EXTD=
EXTT0=
EXTT1=
EXTT2=
EXTT3=
EXTT4=
EXTT5=
EXTT6=
EXTT7=
EXTT8=
EXTT9=
EXTT10=
EXTT11=
EXTT12=
EXTT13=
EXTT14=
EXTT15=
EXTT16=
EXTT17=
EXTT18=
EXTT19=
EXTT20=
EXTT21=
EXTT22=
EXTT23=
PLAYORDER=
